<svg width="27" height="26" viewBox="0 0 27 26" fill="none" xmlns="http://www.w3.org/2000/svg">
<path d="M13.7007 2.45309C17.1333 2.45309 17.5363 2.46828 18.893 2.52908C20.1477 2.5848 20.826 2.79251 21.28 2.96983C21.8818 3.20287 22.3102 3.47644 22.7591 3.92225C23.2079 4.36807 23.4884 4.79362 23.718 5.39142C23.8914 5.84231 24.1056 6.5161 24.1617 7.76236C24.2229 9.10994 24.2382 9.51016 24.2382 12.9196C24.2382 16.3291 24.2229 16.7294 24.1617 18.0769C24.1056 19.3232 23.8965 19.997 23.718 20.4479C23.4833 21.0457 23.2079 21.4712 22.7591 21.917C22.3102 22.3629 21.8818 22.6415 21.28 22.8695C20.826 23.0417 20.1477 23.2545 18.893 23.3102C17.5363 23.371 17.1333 23.3862 13.7007 23.3862C10.2682 23.3862 9.86522 23.371 8.50851 23.3102C7.25381 23.2545 6.57545 23.0468 6.12152 22.8695C5.51967 22.6364 5.09123 22.3629 4.6424 21.917C4.19356 21.4712 3.91303 21.0457 3.68352 20.4479C3.5101 19.997 3.29588 19.3232 3.23978 18.0769C3.17857 16.7294 3.16327 16.3291 3.16327 12.9196C3.16327 9.51016 3.17857 9.10994 3.23978 7.76236C3.29588 6.5161 3.505 5.84231 3.68352 5.39142C3.91814 4.79362 4.19356 4.36807 4.6424 3.92225C5.09123 3.47644 5.51967 3.1978 6.12152 2.96983C6.57545 2.79758 7.25381 2.5848 8.50851 2.52908C9.86522 2.46322 10.2733 2.45309 13.7007 2.45309ZM13.7007 0.153076C10.2121 0.153076 9.77342 0.168274 8.4014 0.229068C7.03449 0.289861 6.10111 0.507703 5.28505 0.821801C4.43838 1.14603 3.72432 1.58678 3.01026 2.29604C2.2962 3.00529 1.85757 3.71961 1.52604 4.55552C1.20981 5.36609 0.990495 6.29319 0.929289 7.65597C0.868084 9.01369 0.852783 9.44937 0.852783 12.9146C0.852783 16.3798 0.868084 16.8155 0.929289 18.1783C0.990495 19.536 1.20981 20.4631 1.52604 21.2787C1.85247 22.1197 2.2962 22.8289 3.01026 23.5382C3.72432 24.2474 4.44348 24.6831 5.28505 25.0124C6.10111 25.3265 7.03449 25.5444 8.4065 25.6052C9.77852 25.666 10.2121 25.6812 13.7058 25.6812C17.1996 25.6812 17.6332 25.666 19.0052 25.6052C20.3721 25.5444 21.3055 25.3265 22.1266 25.0124C22.9733 24.6882 23.6874 24.2474 24.4014 23.5382C25.1155 22.8289 25.5541 22.1146 25.8856 21.2787C26.2019 20.4681 26.4212 19.541 26.4824 18.1783C26.5436 16.8155 26.5589 16.3849 26.5589 12.9146C26.5589 9.4443 26.5436 9.01368 26.4824 7.6509C26.4212 6.29319 26.2019 5.36609 25.8856 4.55045C25.5592 3.70948 25.1155 3.00022 24.4014 2.29097C23.6874 1.58172 22.9682 1.14603 22.1266 0.816735C21.3106 0.502637 20.3772 0.284795 19.0052 0.224002C17.6281 0.168274 17.1894 0.153076 13.7007 0.153076Z" fill="white"/>
<path d="M13.7008 6.36426C10.0591 6.36426 7.10083 9.29753 7.10083 12.9198C7.10083 16.542 10.054 19.4753 13.7008 19.4753C17.3476 19.4753 20.3007 16.542 20.3007 12.9198C20.3007 9.29753 17.3476 6.36426 13.7008 6.36426ZM13.7008 17.1702C11.3342 17.1702 9.41642 15.2654 9.41642 12.9147C9.41642 10.5641 11.3342 8.6592 13.7008 8.6592C16.0674 8.6592 17.9851 10.5641 17.9851 12.9147C17.9851 15.2654 16.0674 17.1702 13.7008 17.1702Z" fill="white"/>
<path d="M20.5608 7.63073C21.4115 7.63073 22.1012 6.94574 22.1012 6.10076C22.1012 5.25579 21.4115 4.5708 20.5608 4.5708C19.7101 4.5708 19.0205 5.25579 19.0205 6.10076C19.0205 6.94574 19.7101 7.63073 20.5608 7.63073Z" fill="white"/>
</svg>
