<svg width="27" height="26" viewBox="0 0 27 26" fill="none" xmlns="http://www.w3.org/2000/svg">
<path d="M24.5785 -0.00854492H2.54091C2.03472 -0.00854492 1.54927 0.191185 1.19134 0.546707C0.833407 0.902228 0.632324 1.38442 0.632324 1.8872V23.7766C0.632324 24.2793 0.833407 24.7615 1.19134 25.1171C1.54927 25.4726 2.03472 25.6723 2.54091 25.6723H24.5785C25.0847 25.6723 25.5702 25.4726 25.9281 25.1171C26.286 24.7615 26.4871 24.2793 26.4871 23.7766V1.8872C26.4871 1.38442 26.286 0.902228 25.9281 0.546707C25.5702 0.191185 25.0847 -0.00854492 24.5785 -0.00854492ZM8.33849 21.8683H4.45129V9.60394H8.33849V21.8683ZM6.3922 7.90437C5.95126 7.9019 5.52095 7.76975 5.15555 7.5246C4.79016 7.27944 4.50606 6.93227 4.33912 6.5269C4.17219 6.12152 4.12988 5.67612 4.21756 5.24689C4.30523 4.81765 4.51895 4.42384 4.83174 4.11514C5.14454 3.80644 5.54238 3.59669 5.97508 3.51236C6.40777 3.42804 6.85591 3.47292 7.26295 3.64133C7.66999 3.80974 8.01768 4.09415 8.26215 4.45865C8.50661 4.82315 8.63689 5.25142 8.63654 5.68939C8.6407 5.98262 8.58538 6.27367 8.47388 6.54521C8.36238 6.81675 8.19699 7.06321 7.98755 7.26991C7.77812 7.4766 7.52893 7.6393 7.25484 7.7483C6.98075 7.85731 6.68738 7.91038 6.3922 7.90437ZM22.6664 21.879H18.781V15.1788C18.781 13.2028 17.9353 12.5929 16.8436 12.5929C15.691 12.5929 14.5598 13.4561 14.5598 15.2288V21.879H10.6726V9.61286H14.4108V11.3124H14.4611C14.8363 10.5581 16.1506 9.26866 18.1561 9.26866C20.3251 9.26866 22.6682 10.5474 22.6682 14.2925L22.6664 21.879Z" fill="white"/>
</svg>
