<?xml version="1.0" encoding="UTF-8"?>
<svg id="Capa_1" data-name="Capa 1" xmlns="http://www.w3.org/2000/svg" viewBox="0 0 259.89 108.98">
  <defs>
    <style>
      .cls-1 {
        fill: none;
        stroke: #a2a1a0;
        stroke-miterlimit: 10;
        stroke-width: 1.41px;
      }

      .cls-2 {
        fill: #828181;
      }

      .cls-3 {
        fill: #ef7e70;
      }

      .cls-4 {
        fill: #d4e7e1;
      }

      .cls-5 {
        fill: #009371;
      }
    </style>
  </defs>
  <g>
    <path class="cls-2" d="M155.85,58.87h-.87v-6.38h.87v6.38Z"/>
    <path class="cls-2" d="M162.25,58.87h-.86l-3.07-4.87h-.03v4.87h-.86v-6.38h.86l3.07,4.87h.02v-4.87h.86v6.38Z"/>
    <path class="cls-2" d="M167.15,57.26c0-.29-.1-.53-.31-.73s-.57-.36-1.09-.5c-.65-.16-1.16-.4-1.52-.71-.36-.31-.55-.71-.55-1.18,0-.5.2-.92.59-1.25.39-.33.9-.5,1.53-.5.67,0,1.21.19,1.61.57.4.38.59.83.58,1.33v.03h-.84c0-.36-.13-.66-.38-.9-.25-.24-.58-.36-.97-.36s-.71.1-.93.29c-.22.2-.32.45-.32.76,0,.28.12.51.35.69.23.19.62.35,1.15.49.64.17,1.13.41,1.47.74.33.32.5.72.5,1.2,0,.51-.2.93-.61,1.24-.41.31-.93.47-1.59.47-.62,0-1.16-.17-1.63-.52s-.7-.81-.69-1.39v-.03h.83c0,.4.15.71.45.93.3.22.65.33,1.03.33.41,0,.73-.09.97-.28.24-.18.36-.43.36-.75Z"/>
    <path class="cls-2" d="M173.7,53.17h-2.1v5.7h-.86v-5.7h-2.08v-.68h5.04v.68Z"/>
    <path class="cls-2" d="M175.56,58.87h-.87v-6.38h.87v6.38Z"/>
    <path class="cls-2" d="M181.48,53.17h-2.11v5.7h-.86v-5.7h-2.08v-.68h5.05v.68Z"/>
    <path class="cls-2" d="M187.09,52.49v4.24c0,.7-.23,1.25-.68,1.64-.46.4-1.04.59-1.76.59s-1.26-.2-1.7-.59c-.44-.4-.66-.94-.66-1.64v-4.24h.86v4.24c0,.49.14.87.42,1.15s.64.41,1.08.41c.47,0,.85-.14,1.14-.41s.44-.66.44-1.15v-4.24h.86Z"/>
    <path class="cls-2" d="M192.92,53.17h-2.11v5.7h-.86v-5.7h-2.08v-.68h5.05v.68Z"/>
    <path class="cls-2" d="M198.58,56.25c0,.78-.24,1.43-.72,1.94-.48.51-1.11.77-1.88.77s-1.35-.26-1.82-.77c-.47-.51-.7-1.16-.7-1.94v-1.14c0-.78.23-1.42.7-1.94s1.07-.78,1.82-.78,1.4.26,1.88.77c.48.52.72,1.16.72,1.94v1.14ZM197.71,55.11c0-.58-.16-1.06-.47-1.44-.32-.37-.74-.56-1.27-.56-.5,0-.9.19-1.2.56-.3.37-.45.85-.45,1.44v1.14c0,.59.15,1.07.45,1.45s.7.56,1.2.56c.53,0,.96-.19,1.27-.56s.47-.86.47-1.45v-1.14Z"/>
    <path class="cls-2" d="M202.06,58.87v-6.38h2.01c.83,0,1.5.26,2.01.77.51.51.76,1.18.76,1.99v.87c0,.82-.25,1.48-.76,1.99-.51.51-1.18.76-2.01.76h-2.01ZM202.92,53.17v5.03h1.14c.59,0,1.06-.2,1.4-.58.34-.39.51-.89.51-1.5v-.88c0-.6-.17-1.1-.51-1.49-.34-.39-.81-.58-1.4-.58h-1.14Z"/>
    <path class="cls-2" d="M211.62,55.91h-2.62v2.28h3.07v.67h-3.93v-6.38h3.88v.68h-3.02v2.06h2.62v.68Z"/>
  </g>
  <g>
    <path class="cls-2" d="M157.3,84.78c0-.29-.1-.53-.31-.73s-.57-.36-1.09-.5c-.65-.16-1.16-.4-1.52-.71-.36-.31-.55-.71-.55-1.18,0-.5.2-.92.59-1.25.39-.33.9-.5,1.53-.5.67,0,1.21.19,1.61.57.4.38.59.83.58,1.33v.03h-.84c0-.36-.13-.66-.38-.9-.25-.24-.58-.36-.97-.36s-.71.1-.93.29c-.22.2-.32.45-.32.76,0,.28.12.51.35.69.23.19.62.35,1.15.49.64.17,1.13.41,1.47.74.33.32.5.72.5,1.2,0,.51-.2.93-.61,1.24-.41.31-.93.47-1.59.47-.62,0-1.16-.17-1.63-.52s-.7-.81-.69-1.39v-.03h.83c0,.4.15.71.45.93.3.22.65.33,1.03.33.41,0,.73-.09.97-.28.24-.18.36-.43.36-.75Z"/>
    <path class="cls-2" d="M162.68,84.74h-2.4l-.57,1.64h-.88l2.3-6.38h.74l2.25,6.38h-.88l-.56-1.64ZM160.53,84.02h1.91l-.93-2.74h-.03l-.95,2.74Z"/>
    <path class="cls-2" d="M169.88,86.39h-.86l-3.07-4.87h-.03v4.87h-.86v-6.38h.86l3.07,4.87h.02v-4.87h.86v6.38Z"/>
    <path class="cls-2" d="M174.75,84.74h-2.4l-.57,1.64h-.88l2.3-6.38h.74l2.25,6.38h-.88l-.56-1.64ZM172.6,84.02h1.91l-.93-2.74h-.03l-.95,2.74Z"/>
    <path class="cls-2" d="M181.03,80.69h-2.1v5.7h-.86v-5.7h-2.08v-.68h5.04v.68Z"/>
    <path class="cls-2" d="M186.69,83.77c0,.78-.24,1.43-.72,1.94-.48.51-1.11.77-1.88.77s-1.35-.26-1.82-.77c-.47-.51-.7-1.16-.7-1.94v-1.14c0-.78.23-1.42.7-1.94s1.07-.78,1.82-.78,1.4.26,1.88.77c.48.52.72,1.16.72,1.94v1.14ZM185.82,82.62c0-.58-.16-1.06-.47-1.44-.31-.37-.74-.56-1.27-.56-.5,0-.9.19-1.2.56-.3.37-.45.85-.45,1.44v1.14c0,.59.15,1.07.45,1.45.3.37.7.56,1.2.56.54,0,.96-.19,1.27-.56s.47-.86.47-1.45v-1.14Z"/>
    <path class="cls-2" d="M188.8,83.62v2.77h-.86v-6.38h2.18c.7,0,1.23.15,1.6.46.37.31.55.76.55,1.35,0,.33-.08.61-.26.85-.17.24-.42.44-.75.58.35.11.6.3.76.55.15.26.23.57.23.95v.6c0,.2.02.38.07.53.04.16.12.29.23.39v.1h-.89c-.11-.1-.19-.25-.22-.44-.03-.19-.05-.39-.05-.6v-.58c0-.35-.1-.62-.3-.83s-.47-.32-.81-.32h-1.48ZM188.8,82.94h1.23c.49,0,.84-.09,1.05-.28s.32-.47.32-.85c0-.36-.1-.64-.31-.83s-.53-.3-.98-.3h-1.32v2.26Z"/>
    <path class="cls-2" d="M194.6,86.39h-.87v-6.38h.87v6.38Z"/>
    <path class="cls-2" d="M201.05,83.77c0,.78-.24,1.43-.72,1.94-.48.51-1.11.77-1.88.77s-1.35-.26-1.82-.77c-.47-.51-.7-1.16-.7-1.94v-1.14c0-.78.23-1.42.7-1.94s1.07-.78,1.82-.78,1.4.26,1.88.77c.48.52.72,1.16.72,1.94v1.14ZM200.19,82.62c0-.58-.16-1.06-.47-1.44-.31-.37-.74-.56-1.27-.56-.5,0-.9.19-1.2.56-.3.37-.45.85-.45,1.44v1.14c0,.59.15,1.07.45,1.45.3.37.7.56,1.2.56.54,0,.96-.19,1.27-.56s.47-.86.47-1.45v-1.14Z"/>
    <path class="cls-2" d="M204.53,86.39v-6.38h2.08c.67,0,1.19.14,1.56.43.38.29.57.72.57,1.29,0,.28-.09.52-.25.74-.17.22-.39.38-.68.5.42.06.75.24.99.54.24.3.37.66.37,1.07,0,.58-.19,1.03-.57,1.34s-.89.46-1.54.46h-2.53ZM205.39,82.72h1.4c.32,0,.58-.09.78-.26s.3-.42.3-.74c0-.35-.11-.6-.33-.77-.22-.17-.53-.26-.94-.26h-1.22v2.03ZM205.39,83.39v2.32h1.67c.39,0,.7-.1.92-.29s.33-.47.33-.83-.11-.64-.33-.85-.52-.33-.9-.35h-1.68Z"/>
    <path class="cls-2" d="M211.1,83.62v2.77h-.86v-6.38h2.18c.7,0,1.23.15,1.6.46.37.31.55.76.55,1.35,0,.33-.08.61-.26.85-.17.24-.42.44-.75.58.35.11.6.3.76.55.15.26.23.57.23.95v.6c0,.2.02.38.07.53.04.16.12.29.23.39v.1h-.89c-.11-.1-.19-.25-.22-.44-.03-.19-.05-.39-.05-.6v-.58c0-.35-.1-.62-.3-.83s-.47-.32-.81-.32h-1.48ZM211.1,82.94h1.23c.49,0,.84-.09,1.05-.28s.32-.47.32-.85c0-.36-.1-.64-.31-.83s-.53-.3-.98-.3h-1.32v2.26Z"/>
    <path class="cls-2" d="M216.9,86.39h-.87v-6.38h.87v6.38Z"/>
    <path class="cls-2" d="M222.82,80.69h-2.11v5.7h-.86v-5.7h-2.08v-.68h5.05v.68Z"/>
    <path class="cls-2" d="M226.68,84.74h-2.4l-.57,1.64h-.88l2.3-6.38h.74l2.25,6.38h-.88l-.56-1.64ZM224.52,84.02h1.91l-.93-2.74h-.03l-.95,2.74ZM225.89,78.22h1.01v.03s-1.17,1.14-1.17,1.14h-.65l.81-1.17Z"/>
    <path class="cls-2" d="M233.88,86.39h-.86l-3.07-4.87h-.03v4.87h-.86v-6.38h.86l3.07,4.87h.03v-4.87h.86v6.38Z"/>
    <path class="cls-2" d="M236.33,86.39h-.87v-6.38h.87v6.38Z"/>
    <path class="cls-2" d="M242.47,84.35v.03c.02.6-.19,1.1-.62,1.5-.43.4-1,.6-1.71.6s-1.31-.26-1.76-.77c-.45-.51-.68-1.16-.68-1.95v-1.14c0-.79.23-1.44.68-1.95.46-.51,1.04-.77,1.76-.77s1.3.19,1.72.58.63.89.62,1.53v.03h-.84c0-.45-.13-.8-.39-1.06-.26-.26-.63-.39-1.12-.39s-.86.2-1.15.58c-.29.39-.43.87-.43,1.45v1.14c0,.58.14,1.07.43,1.46.29.39.67.58,1.15.58s.85-.13,1.12-.39c.26-.26.39-.62.39-1.07h.83Z"/>
    <path class="cls-2" d="M248.47,83.77c0,.78-.24,1.43-.72,1.94-.48.51-1.11.77-1.88.77s-1.35-.26-1.82-.77c-.47-.51-.7-1.16-.7-1.94v-1.14c0-.78.23-1.42.7-1.94s1.07-.78,1.82-.78,1.4.26,1.88.77c.48.52.72,1.16.72,1.94v1.14ZM247.61,82.62c0-.58-.16-1.06-.47-1.44-.32-.37-.74-.56-1.27-.56-.5,0-.9.19-1.2.56-.3.37-.45.85-.45,1.44v1.14c0,.59.15,1.07.45,1.45s.7.56,1.2.56c.53,0,.96-.19,1.27-.56s.47-.86.47-1.45v-1.14Z"/>
  </g>
  <g>
    <path class="cls-2" d="M163.38,71.6l.02.06c.02,1.46-.35,2.55-1.12,3.28s-1.87,1.09-3.3,1.09-2.63-.43-3.49-1.3c-.86-.86-1.29-2.09-1.29-3.68v-4.04c0-1.59.42-2.82,1.25-3.69s1.96-1.31,3.37-1.31c1.49,0,2.64.36,3.44,1.09.8.72,1.18,1.82,1.16,3.29l-.02.06h-2.57c0-.87-.16-1.48-.46-1.83-.31-.35-.83-.52-1.55-.52-.66,0-1.16.24-1.49.72-.33.48-.5,1.21-.5,2.2v4.06c0,.99.18,1.73.53,2.2s.89.72,1.61.72c.66,0,1.13-.17,1.41-.52.29-.35.43-.96.43-1.85h2.56Z"/>
    <path class="cls-2" d="M171.1,72.88h-3.41l-.77,2.95h-2.75l3.87-13.63h2.73l3.87,13.63h-2.76l-.78-2.95ZM168.24,70.8h2.32l-1.13-4.33h-.06l-1.13,4.33Z"/>
    <path class="cls-2" d="M178.38,70.36v5.47h-2.64v-13.62h4.08c1.35,0,2.42.35,3.2,1.06.78.71,1.16,1.69,1.16,2.95,0,.71-.16,1.32-.49,1.83-.33.52-.8.93-1.42,1.24.71.24,1.22.63,1.54,1.18.31.55.47,1.24.47,2.06v.99c0,.38.04.78.13,1.2.09.42.24.72.47.92v.2h-2.73c-.22-.2-.36-.53-.42-.98s-.09-.9-.09-1.35v-.95c0-.69-.14-1.23-.43-1.61-.29-.38-.7-.57-1.23-.57h-1.59ZM178.38,68.3h1.42c.57,0,1-.17,1.3-.51.3-.34.44-.82.44-1.45s-.15-1.14-.44-1.52c-.29-.37-.72-.56-1.28-.56h-1.44v4.04Z"/>
    <path class="cls-2" d="M186.32,75.83v-13.63h4.2c1.42,0,2.6.53,3.53,1.6.93,1.06,1.39,2.43,1.39,4.1v2.26c0,1.67-.46,3.04-1.39,4.1-.93,1.06-2.11,1.59-3.53,1.59h-4.2ZM188.96,64.27v9.5h1.56c.68,0,1.23-.34,1.65-1.01.42-.67.63-1.54.63-2.61v-2.27c0-1.06-.21-1.92-.63-2.59-.42-.67-.97-1.01-1.65-1.01h-1.56Z"/>
    <path class="cls-2" d="M200.08,75.83h-2.63v-13.63h2.63v13.63Z"/>
    <path class="cls-2" d="M212.01,70.92c0,1.6-.45,2.86-1.36,3.75-.9.9-2.11,1.35-3.61,1.35s-2.71-.45-3.61-1.35c-.9-.9-1.35-2.15-1.35-3.75v-3.8c0-1.6.45-2.85,1.34-3.76.9-.91,2.09-1.36,3.6-1.36s2.71.45,3.62,1.36c.91.91,1.36,2.16,1.36,3.76v3.8ZM209.38,67.1c0-.99-.2-1.74-.6-2.25-.4-.51-.98-.76-1.75-.76s-1.35.25-1.73.75c-.39.5-.58,1.25-.58,2.25v3.83c0,1.01.2,1.77.59,2.28.39.51.97.76,1.74.76s1.35-.25,1.75-.76c.4-.51.59-1.26.59-2.28v-3.83Z"/>
    <path class="cls-2" d="M216.49,73.77h5.08v2.06h-7.73v-13.63h2.64v11.57Z"/>
    <path class="cls-2" d="M232.22,70.92c0,1.6-.45,2.86-1.36,3.75-.9.9-2.11,1.35-3.61,1.35s-2.71-.45-3.61-1.35c-.9-.9-1.35-2.15-1.35-3.75v-3.8c0-1.6.45-2.85,1.34-3.76.9-.91,2.09-1.36,3.6-1.36s2.71.45,3.62,1.36c.91.91,1.36,2.16,1.36,3.76v3.8ZM229.59,67.1c0-.99-.2-1.74-.6-2.25-.4-.51-.98-.76-1.75-.76s-1.35.25-1.73.75c-.39.5-.58,1.25-.58,2.25v3.83c0,1.01.2,1.77.59,2.28.39.51.97.76,1.74.76s1.35-.25,1.75-.76c.4-.51.59-1.26.59-2.28v-3.83Z"/>
    <path class="cls-2" d="M243.19,74.03c-.39.54-.95,1.01-1.68,1.4s-1.68.59-2.84.59c-1.47,0-2.65-.43-3.54-1.29s-1.33-2.08-1.33-3.66v-4.14c0-1.57.43-2.79,1.3-3.65s2.01-1.29,3.43-1.29,2.61.35,3.36,1.05c.76.7,1.12,1.7,1.1,3l-.02.06h-2.48c0-.71-.16-1.23-.47-1.55s-.78-.49-1.41-.49c-.68,0-1.21.24-1.59.71-.38.47-.57,1.19-.57,2.14v4.16c0,.97.19,1.7.58,2.17.39.47.94.71,1.66.71.51,0,.92-.06,1.21-.18.29-.12.52-.28.67-.48v-2.75h-2.08v-1.83h4.72v5.31Z"/>
    <path class="cls-2" d="M247.88,75.83h-2.63v-13.63h2.63v13.63ZM246.95,58.36h2.94l.03.06-2.36,2.43h-2.29l1.68-2.49Z"/>
    <path class="cls-2" d="M256.35,72.88h-3.41l-.77,2.95h-2.75l3.87-13.63h2.73l3.87,13.63h-2.76l-.78-2.95ZM253.49,70.8h2.32l-1.13-4.33h-.06l-1.13,4.33Z"/>
  </g>
  <line class="cls-1" x1="144.62" y1="51.97" x2="144.62" y2="86.96"/>
  <g>
    <path class="cls-5" d="M67.6,99.27c-4.26,3.03-8.18,5.73-11.99,8.59-1.91,1.44-3.58,1.55-5.42,0-7.59-6.43-15.63-12.38-22.68-19.35-10.11-9.99-18.25-21.55-23.59-34.87C.8,45.91-1.18,37.96.79,29.57c1.01-4.3,3.43-7.62,8.15-10.33-5.44,7.8-4.19,15.19-1.32,22.46,5.12,12.98,14.09,23.2,24.15,32.52,10.34,9.58,21.81,17.58,34.34,24.07.35.18.66.43,1.5.98Z"/>
    <path class="cls-3" d="M84.03,49.56c2.22-4.61,4.83-8.81,6.32-13.37,3.68-11.22-2.04-19.78-13.75-21.51-10.06-1.49-19.57.76-28.98,3.93-.27.09-.55.17-.98.3C55.54,11.57,79.88-1.13,95.14.08c9.25.73,13.86,6.29,11.91,15.37-1.99,9.24-7.38,16.64-13.29,23.66-3.05,3.63-6.46,6.96-9.73,10.45Z"/>
    <path class="cls-4" d="M37.75,66.61c-8.49-7.16-17.13-15.38-22.57-26.36-.94-1.89-1.67-3.94-2.13-6-1.99-8.82,2.19-14.35,11.23-15.35,6.7-.74,13.17.33,19.56,2.05,10.45,2.81,20.17,7.32,29.93,13.04-5.2-.91-9.86-1.93-14.58-2.51-6.51-.81-12.97-.49-19.21,1.9-8.35,3.2-12.24,10.22-9.38,18.73,1.78,5.28,4.92,10.1,7.15,14.51Z"/>
  </g>
  <g>
    <path class="cls-2" d="M50.17,53.14h5.22v30.46h-5.22v-30.46Z"/>
    <path class="cls-2" d="M59.87,68.38c0-7.01,3.35-15.75,12.75-15.75,5.79,0,9.31,3.26,10.62,6.48l-4.7,2.13c-1.52-2.31-3.05-3.61-5.92-3.61-5.61,0-7.35,5.96-7.35,10.75,0,5.05,2.22,10.71,7.35,10.71,2.74,0,4.44-1.61,5.83-3.92l4.83,1.83c-1.87,4.22-5.22,7.14-10.66,7.14-9.49,0-12.75-8.23-12.75-15.75Z"/>
    <path class="cls-2" d="M85.25,76.25l4.83-1.78c1.26,2.79,3.7,4.7,6.83,4.7s5.22-1.44,5.22-4.22-3.09-4-6.53-5.18c-4.35-1.48-9.23-3.18-9.23-8.97,0-4.44,3.61-8.18,10.01-8.18,5.31,0,8.66,2.79,9.75,6.53l-4.7,1.57c-.78-1.78-2.52-3.13-5.4-3.13s-4.35,1.18-4.35,3.26c0,2.22,2.65,3.13,5.83,4.18,4.44,1.57,9.92,3.48,9.92,9.92,0,5.87-4.7,9.18-10.71,9.18-5.61,0-9.84-3.05-11.49-7.88Z"/>
    <path class="cls-2" d="M123.93,53.14c7.36,0,9.75,4,9.75,8.14,0,2.57-1.22,4.96-3.92,6.27,3.61,1.31,5,4.31,5,7.05,0,4.22-2.65,9.01-10.18,9.01h-13.1v-30.46h12.45ZM128.42,61.68c0-1.78-.74-3.7-4.35-3.7h-7.35v7.44h6.53c3.48,0,5.18-1.52,5.18-3.74ZM129.46,74.73c0-2.26-1.09-4.48-5.83-4.48h-6.92v8.53h8.18c3.57,0,4.57-2.18,4.57-4.05Z"/>
  </g>
</svg>