<svg width="229" height="44" viewBox="0 0 229 44" fill="none" xmlns="http://www.w3.org/2000/svg">
<path d="M45.8774 22.5492V22.4977C45.8774 17.3555 49.8825 13.143 55.3607 13.143C58.6168 13.143 60.5805 14.0218 62.4666 15.624L59.9601 18.6473C58.5646 17.4846 57.3244 16.8127 55.2315 16.8127C52.3374 16.8127 50.0377 19.3708 50.0377 22.4461V22.4977C50.0377 25.8053 52.3119 28.2342 55.5159 28.2342C56.9629 28.2342 58.2547 27.8722 59.2627 27.1487V24.5645H55.2575V21.1283H63.1131V28.9832C61.2525 30.5594 58.6944 31.8512 55.3867 31.8512C49.7539 31.8518 45.8774 27.8982 45.8774 22.5492Z" fill="#244469"/>
<path d="M66.006 13.454H74.2752C76.5749 13.454 78.3579 14.0999 79.5466 15.2886C80.5545 16.2965 81.0973 17.7175 81.0973 19.4229V19.4744C81.0973 22.3946 79.5211 24.2291 77.2208 25.0818L81.6395 31.5419H76.9885L73.1126 25.7538H69.9856V31.5419H66.006V13.454ZM74.0168 22.2393C75.955 22.2393 77.0661 21.2059 77.0661 19.6812V19.6297C77.0661 17.9243 75.8774 17.0461 73.9397 17.0461H69.9862V22.2399L74.0168 22.2393Z" fill="#244469"/>
<path d="M89.9596 13.3249H93.6288L101.381 31.5419H97.2203L95.5664 27.4852H87.9183L86.2644 31.5419H82.2072L89.9596 13.3249ZM94.1455 23.9708L91.7421 18.105L89.3387 23.9708H94.1455Z" fill="#244469"/>
<path d="M103.241 13.4535H110.295C115.98 13.4535 119.908 17.3555 119.908 22.4456V22.4971C119.908 27.5878 115.98 31.5413 110.295 31.5413H103.241V13.4535ZM110.295 27.9498C113.551 27.9498 115.747 25.7532 115.747 22.5492V22.4977C115.747 19.2937 113.551 17.0455 110.295 17.0455H107.22V27.9504L110.295 27.9498Z" fill="#244469"/>
<path d="M122.517 13.4535H136.16V16.994H126.47V20.6631H134.997V24.2031H126.47V28.0014H136.289V31.5419H122.517V13.4535Z" fill="#244469"/>
<path d="M145.72 13.4535H149.699V27.9243H158.717V31.5419H145.72V13.4535Z" fill="#244469"/>
<path d="M166.986 13.3249H170.655L178.407 31.5419H174.246L172.593 27.4852H164.944L163.291 31.5419H159.234L166.986 13.3249ZM171.172 23.9708L168.768 18.105L166.365 23.9708H171.172Z" fill="#244469"/>
<path d="M182.153 17.1232H176.649V13.454H191.636V17.1232H186.133V31.5419H182.153V17.1232Z" fill="#244469"/>
<path d="M197.631 13.3249H201.3L209.052 31.5419H204.892L203.238 27.4852H195.59L193.936 31.5419H189.879L197.631 13.3249ZM201.817 23.9708L199.414 18.105L197.01 23.9708H201.817Z" fill="#244469"/>
<path d="M210.912 13.4535H215.201L219.956 21.1022L224.71 13.4535H229V31.5419H225.046V19.7328L219.956 27.4591H219.852L214.814 19.8104V31.5419H210.912V13.4535Z" fill="#244469"/>
<path d="M30.7226 6.95445L28.7341 6.04398L25.8372 4.71727L23.4974 3.64582L21.845 2.88872L18.6648 1.43228L15.586 0.0223219L15.6348 0H15.5371L15.5847 0.0223219L14.737 0.388664L4.81265 4.67893L3.53872 5.22963L3.20468 5.37406L0.3031 6.62829C-0.107623 6.80581 -0.0763727 7.39826 0.350632 7.53167L1.39819 7.85915L3.30185 8.45448L4.669 8.88175L6.72078 9.52331C6.92404 9.58686 7.06164 9.77594 7.05928 9.98892L7.0409 11.7022C7.03696 12.0735 7.43586 12.3093 7.75861 12.1255C8.79356 11.536 9.90283 11.063 11.0678 10.7219C12.4457 10.3185 13.9016 10.1 15.4085 10.1C15.6776 10.1 15.9447 10.1089 16.2107 10.1226C18.1543 10.2224 20.0036 10.6825 21.6948 11.4364C22.1993 11.6612 22.6906 11.9107 23.1652 12.1862C23.1788 12.1941 23.1928 12.2004 23.2067 12.2067C23.5158 12.3495 23.8779 12.1292 23.885 11.7799L23.8855 11.7728L23.8887 11.2949L23.896 10.1717C23.8973 9.95819 24.0392 9.77095 24.2445 9.71134L24.4814 9.6428L26.395 9.08921L30.6551 7.85652C31.0858 7.7323 31.1294 7.14091 30.7226 6.95445Z" fill="#244469"/>
<path d="M1.76271 12.1838C1.58492 12.0691 1.48828 11.8624 1.48854 11.6507L1.49012 8.74257C1.49038 8.48416 1.33859 8.25412 1.10855 8.14776C1.08307 8.13594 1.05707 8.12439 1.0295 8.11572L0.866156 8.06477H0.820724L0.820462 8.43505L0.818624 11.6363C0.818361 11.8524 0.715943 12.0609 0.533166 12.1759C0.216983 12.3747 0.00453093 12.7219 6.65518e-05 13.1237C-0.00387261 13.4911 0.167349 13.8178 0.435475 14.0279C0.640048 14.1883 0.749294 14.4407 0.695722 14.6952L0.469352 15.7719C0.383741 16.1797 0.694934 16.5634 1.1117 16.5634C1.52268 16.5634 1.83256 16.1902 1.75693 15.786L1.5542 14.7041C1.5064 14.4486 1.6209 14.1986 1.82915 14.0426C2.10174 13.8383 2.28005 13.5158 2.28399 13.1484C2.28767 12.7429 2.07942 12.3884 1.76271 12.1838Z" fill="#244469"/>
<path d="M44.163 39.8963C43.9111 39.7151 43.4739 39.8659 43.0606 40.2359C42.9124 40.3685 42.7675 40.5284 42.6351 40.7123C42.5973 40.7648 42.5621 40.8178 42.5285 40.8706C42.3116 41.2152 42.1882 41.5634 42.164 41.8507C41.3236 42.5994 40.3972 43.0358 39.3916 43.1375C38.9867 43.1782 38.5804 43.1648 38.1763 43.1107C36.8472 42.9321 35.5407 42.2932 34.3784 41.5274C34.396 41.275 34.2909 41.0263 34.0798 40.8759C33.4417 40.421 32.8597 39.9425 32.3755 39.5226C32.1533 39.3296 31.9495 39.1481 31.7741 38.9887C31.8888 38.8848 32.017 38.77 32.1525 38.6502C32.4196 38.4144 32.7224 38.1539 33.0551 37.8842C33.2142 37.755 33.3807 37.6242 33.5517 37.4934C33.6956 37.3831 33.8429 37.2734 33.9942 37.1641C34.0231 37.1434 34.0509 37.1221 34.0801 37.1014C34.2912 36.9509 34.396 36.7022 34.3784 36.4498C35.2308 35.8884 36.1607 35.3939 37.12 35.0997C37.8669 34.8707 38.6314 34.7631 39.3916 34.8398C39.6983 34.8708 39.9967 34.9364 40.2884 35.0288C40.9211 35.2295 41.5193 35.5696 42.0786 36.0501C42.076 36.396 42.2436 36.8595 42.5584 37.2965C43.06 37.9935 43.7441 38.3587 44.0863 38.1124C44.4285 37.8661 44.299 37.1016 43.7974 36.4047C43.423 35.8844 42.9474 35.5499 42.5879 35.5155C41.7872 34.819 40.9108 34.3697 39.9633 34.1809C39.7995 34.148 39.6337 34.1223 39.4654 34.1055C39.0045 34.059 38.545 34.0732 38.0901 34.1333C36.7295 34.3135 35.412 34.9206 34.2355 35.6623C34.1441 35.7198 34.0535 35.7778 33.964 35.8366C33.7355 35.7274 33.4566 35.7303 33.2271 35.8936C33.2003 35.9128 33.1746 35.9322 33.1481 35.9514C32.6677 36.2967 32.2216 36.6505 31.8143 36.9924C31.4287 37.3159 31.0771 37.6284 30.767 37.9102C27.743 36.5 23.6804 37.349 20.0446 38.1135C18.2875 38.4824 16.628 38.8309 15.4095 38.8309C14.8733 38.8309 14.3449 38.7981 13.8252 38.7356C13.4854 38.6949 13.1497 38.6413 12.8186 38.5751C11.5586 38.3236 10.3627 37.8923 9.25864 37.3091C7.35419 36.3033 5.7239 34.8466 4.51064 33.0813C3.67922 31.8715 3.04396 30.5169 2.65084 29.0639C2.6209 28.9531 2.59227 28.8417 2.56522 28.7299C2.44915 28.2514 2.35855 27.7627 2.29631 27.2655C2.22856 26.7246 2.19337 26.1736 2.19337 25.6145C2.19337 25.464 2.19678 25.3146 2.20177 25.1655C2.22751 24.3971 2.31863 23.6449 2.47095 22.9149C2.6574 22.0204 2.93498 21.1591 3.29266 20.3405C3.77586 19.2344 4.40612 18.2068 5.1585 17.2824C5.57054 16.7766 6.01882 16.3013 6.49992 15.8614C7.88256 14.5972 9.53438 13.6229 11.3574 13.0342C11.9039 12.8577 12.4654 12.7154 13.0402 12.6108C13.4423 12.5378 13.8509 12.4835 14.2648 12.4478C14.6422 12.4152 15.024 12.3976 15.4095 12.3976C17.3904 12.3976 19.2704 12.8364 20.959 13.6208C21.7505 13.9885 22.4995 14.4323 23.197 14.9426C23.4218 15.1069 23.6416 15.2782 23.8551 15.4562C25.7346 17.0216 27.1745 19.0978 27.9594 21.4697C28.0715 21.8082 28.17 22.1528 28.2548 22.5026C28.2871 22.6352 28.3176 22.7686 28.3457 22.9025C28.529 23.7781 28.6259 24.6851 28.6259 25.6143C28.6259 26.1474 28.5905 26.6755 28.5272 27.1978C28.4261 28.0342 28.2464 28.8543 27.9904 29.6501C27.9195 29.8709 27.8444 30.0904 27.7619 30.3074L27.7477 30.3066C26.5765 30.3066 25.6272 31.2559 25.6272 32.4272C25.6272 32.4694 25.6311 32.5107 25.6335 32.5522C25.6983 33.6648 26.6188 34.5477 27.7477 34.5477C27.9408 34.5477 28.1272 34.5196 28.305 34.4713C29.2055 34.2263 29.8686 33.4051 29.8686 32.4272C29.8686 31.8221 29.6138 31.2774 29.2073 30.8911C29.5259 30.0589 29.7683 29.1992 29.9311 28.3202C29.9841 28.0355 30.0256 27.7482 30.0616 27.4599C30.1378 26.8514 30.1792 26.2359 30.1792 25.6145C30.1792 25.2232 30.1638 24.8356 30.1336 24.4519C30.1212 24.2925 30.1054 24.1342 30.0879 23.9764C29.9581 22.8064 29.6918 21.6775 29.3042 20.6057C28.7541 19.0839 27.9604 17.6779 26.9709 16.4342C26.0686 15.3002 25.0032 14.3018 23.8109 13.474C23.3868 13.1796 22.947 12.9065 22.4921 12.6568C21.6788 12.2106 20.8195 11.8393 19.923 11.5509C18.4994 11.0929 16.9828 10.8445 15.4092 10.8445C15.242 10.8445 15.0755 10.8485 14.9095 10.854C13.857 10.8892 12.832 11.0349 11.8456 11.2802C9.69326 11.8154 7.72578 12.8235 6.06083 14.1883C4.33286 15.6046 2.9313 17.4043 1.98617 19.4563C1.91894 19.602 1.85355 19.7488 1.79131 19.8972C1.37376 20.8867 1.06152 21.9306 0.868236 23.0152C0.759778 23.6242 0.68861 24.2461 0.65736 24.8782C0.64528 25.1221 0.638977 25.3677 0.638977 25.6148C0.638977 26.452 0.710144 27.2726 0.844601 28.0723C0.854843 28.1337 0.865085 28.1955 0.876114 28.2569C1.03867 29.1545 1.28342 30.0235 1.60118 30.8573C1.90896 31.6651 2.28528 32.439 2.72358 33.1719C4.06998 35.4235 5.99833 37.2886 8.29959 38.5578C9.11263 39.0061 9.97215 39.3798 10.869 39.6702C11.8968 40.0029 12.9738 40.2259 14.0859 40.3252C14.5219 40.364 14.9631 40.385 15.4087 40.385C16.7885 40.385 18.5249 40.0203 20.3634 39.634C23.4517 38.9859 26.8748 38.2681 29.4006 39.0463C29.5794 39.1014 29.7538 39.1634 29.9232 39.234C29.9547 39.3023 29.9988 39.3661 30.0579 39.4205L30.3562 39.6931C30.6002 39.9171 30.8812 40.1744 31.1913 40.4486C31.7709 40.9612 32.4569 41.5358 33.2268 42.0836C33.4564 42.247 33.7353 42.2498 33.9635 42.1406C35.4378 43.112 37.155 43.9009 38.9105 43.8975C39.0951 43.8972 39.2803 43.8909 39.4657 43.8722C40.5933 43.7585 41.6264 43.2895 42.5577 42.4886C42.7131 42.5027 42.8985 42.4489 43.0921 42.3391C43.3563 42.1894 43.6351 41.9358 43.8739 41.6041C44.1504 41.2199 44.3132 40.8157 44.3466 40.4885C44.3744 40.2222 44.3164 40.0066 44.163 39.8963ZM27.7475 33.4125C27.2036 33.4125 26.7627 32.9715 26.7627 32.4277C26.7627 31.8841 27.2036 31.4429 27.7475 31.4429C28.2913 31.4429 28.7323 31.8838 28.7323 32.4277C28.7323 32.9715 28.2913 33.4125 27.7475 33.4125Z" fill="#244469"/>
<path d="M15.9626 36.8245C15.8978 36.7844 15.8216 36.7623 15.7712 36.7274C15.6562 36.6473 15.5438 36.4201 15.4301 36.3214C15.361 36.2612 15.2457 36.2195 15.2032 36.1617C15.1625 36.1071 15.1501 35.9981 15.1157 35.933C15.0776 35.8615 14.9991 35.8027 14.9532 35.7234C14.8544 35.5506 14.7294 35.319 14.7428 35.2027C14.7562 35.0882 14.8762 35.0243 14.8521 34.9119C14.83 34.8061 14.6073 34.8003 14.5913 34.6753C14.5813 34.5997 14.679 34.487 14.6861 34.3825C14.6906 34.3221 14.5881 34.2257 14.6435 34.1443C14.7074 34.0506 14.7906 34.1714 14.8778 34.1304C14.8431 33.9164 14.9503 33.5923 14.7531 33.5044C14.6362 33.58 14.8242 33.8064 14.638 33.8387C14.4747 33.7399 14.5435 33.5172 14.5259 33.3452C14.5146 33.2315 14.4721 33.1251 14.4818 33.0054C14.4868 32.9424 14.5233 32.8733 14.5212 32.8074C14.5149 32.6107 14.3203 32.4258 14.3321 32.231C14.3379 32.1369 14.4109 32.0663 14.4377 31.9683C14.4566 31.9019 14.4463 31.8236 14.4647 31.7538C14.4889 31.6645 14.5495 31.5873 14.5687 31.5054C14.6055 31.3504 14.622 31.0789 14.6105 30.9439C14.5957 30.7743 14.4823 30.6175 14.4855 30.4347C14.4868 30.3685 14.529 30.2632 14.5325 30.1789C14.5354 30.1004 14.5025 30.0179 14.5062 29.9281C14.5091 29.8457 14.5464 29.7716 14.5671 29.6742C14.6049 29.4967 14.58 29.2902 14.6089 29.1127C14.6173 29.0605 14.6496 29.025 14.6554 28.9735C14.6722 28.8257 14.6417 28.6707 14.6538 28.5229C14.6766 28.25 14.7423 28.0625 14.7299 27.806C14.7205 27.6119 14.716 27.3157 14.6625 27.1875C14.6236 27.0948 14.4957 26.9517 14.3717 26.834C14.3045 26.7702 14.2386 26.7135 14.189 26.677C14.096 26.6087 13.9784 26.5746 13.8762 26.5068C13.6577 26.3634 13.2365 26.0649 13.1632 25.8217C13.1422 25.751 13.1572 25.6636 13.1346 25.5856C13.091 25.4312 12.9757 25.2878 12.9009 25.1347C12.7583 24.8427 12.6582 24.4863 12.5119 24.1848C12.4379 24.0317 12.3788 23.8613 12.2927 23.736C12.2538 23.679 12.139 23.6147 12.0826 23.5409C12.0658 23.5191 12.0526 23.4965 12.05 23.4726C12.0345 23.3366 11.9594 23.1425 11.9878 23.0438C12.0256 22.9093 12.3053 22.8324 12.3205 22.7082C12.3336 22.6021 12.1997 22.5225 12.1813 22.4293C12.1367 22.2013 12.2674 22.0874 12.3767 21.9159C12.4127 21.8599 12.4526 21.7672 12.4878 21.7268C12.55 21.6546 12.6595 21.6459 12.7399 21.5698C12.7851 21.5269 12.8218 21.4308 12.8814 21.3696C13.0083 21.2389 13.1908 21.2071 13.252 21.0821C13.3019 20.9805 13.3898 20.4518 13.3686 20.2688C13.3641 20.2297 13.3486 20.1916 13.3308 20.154C13.3008 20.0899 13.2625 20.0272 13.2472 19.9628C13.2044 19.7819 13.2131 19.5918 13.0348 19.5729C12.9248 19.5613 12.8323 19.6729 12.752 19.7407C12.7223 19.8402 12.7173 19.9515 12.607 19.9694C12.4384 19.997 12.4035 19.7698 12.2212 19.6884C12.1487 19.6558 12.0282 19.6419 11.9836 19.6149C11.853 19.5353 11.8339 19.3268 11.6978 19.2299C11.5839 19.1493 11.4767 19.1587 11.4153 19.049C11.3935 18.976 11.4331 18.8546 11.4373 18.7611C11.2921 18.6498 11.202 18.2911 11.03 18.1871C10.9158 18.118 10.7299 18.0996 10.5849 18.0295C10.5169 17.9964 10.4659 17.9583 10.3935 17.9329C10.3044 17.9006 10.2102 17.8877 10.1435 17.8428C9.87822 17.6666 9.78263 17.192 9.43073 17.1576C9.28051 17.1427 9.11901 17.2643 8.9835 17.2467C8.84878 17.2288 8.63659 17.0936 8.47771 16.994C8.31227 16.8903 8.12371 16.8212 7.98821 16.7291C7.94094 16.6968 7.90207 16.6558 7.86478 16.6153C7.81567 16.562 7.76972 16.5093 7.71483 16.4762C7.64077 16.4315 7.52733 16.411 7.46666 16.3724C7.38053 16.3175 7.29702 16.2133 7.19329 16.1198C7.16676 16.0959 7.14024 16.0691 7.11555 16.041C4.43588 18.3 2.76777 21.7097 2.8589 25.4861C3.01804 32.0947 8.5045 37.323 15.1131 37.1638L15.7904 37.1475C16.012 37.1423 16.2321 37.1307 16.4503 37.1134C16.3731 37.078 16.2943 37.0417 16.2155 37.0018C16.1357 36.9608 16.0493 36.8773 15.9626 36.8245Z" fill="#244469"/>
<path d="M27.4689 24.8929C27.3097 18.2843 21.8233 13.056 15.2144 13.2151L14.5374 13.2314C11.8664 13.2957 9.42122 14.2304 7.46582 15.7574L9.17384 15.6563C9.17279 15.7233 9.17673 15.7921 9.18802 15.8627C9.1896 15.8732 9.19485 15.8937 9.20115 15.9176C9.2345 16.0421 9.32195 16.3129 9.36975 16.3796C9.43356 16.4678 9.63577 16.6138 9.7592 16.6319C9.86372 16.6472 9.99345 16.6075 10.0972 16.6017C10.2175 16.5957 10.3653 16.6125 10.4764 16.5915C10.7978 16.5316 10.7894 16.1057 11.1169 16.0038C11.2595 15.9599 11.4176 15.9673 11.6568 15.9849C11.7243 16.0581 11.7458 16.1737 11.723 16.269C11.7059 16.3412 11.6282 16.3985 11.578 16.4977C11.5339 16.5849 11.5137 16.691 11.4722 16.7606C11.4176 16.8517 11.3136 16.91 11.2682 16.9964C11.2382 17.0526 11.2414 17.1275 11.2162 17.1784C11.1715 17.2685 11.0371 17.3192 11.0833 17.4234C11.3743 17.5839 11.7642 17.4741 12.0255 17.5568C12.1356 17.5918 12.3512 17.7556 12.3273 17.929C12.3094 18.059 12.1996 18.1317 12.1676 18.2722C12.1279 18.4489 12.0255 18.6588 11.9993 18.8027C11.9567 19.0382 12.2661 19.4933 12.519 19.522C12.7913 19.5527 12.9835 19.3056 13.2931 19.4889C13.3961 19.5495 13.4888 19.7402 13.6096 19.7465C13.7096 19.7517 13.8809 19.5971 13.962 19.4857C14.061 19.3497 14.0823 19.227 14.2338 19.1714C14.3974 19.1112 14.5145 19.1648 14.7202 19.1162C14.8121 19.0947 14.8953 19.0485 14.9812 19.0038C15.0566 18.965 15.1453 18.8491 15.221 18.9466C15.3208 19.075 15.0587 19.1073 15.1401 19.2418C15.3252 19.3717 15.4644 19.0842 15.6088 19.0973C15.6548 19.1018 15.8021 19.2123 15.877 19.2764C15.9794 19.3636 16.0043 19.4713 16.1236 19.5104C16.2 19.5361 16.3318 19.5065 16.44 19.5356C16.5831 19.575 16.6546 19.711 16.7654 19.7218C16.9006 19.7352 16.9836 19.5968 17.1015 19.59C17.3599 19.5755 17.4442 19.6617 17.5356 19.8337C17.6575 19.871 17.6827 19.7058 17.7893 19.7785C17.7759 19.7982 17.7725 19.8153 17.7672 19.8326C17.7412 19.9182 17.794 19.9821 17.8248 20.0737C17.8489 20.1446 17.8374 20.1911 17.8641 20.2239C17.924 20.2977 18.0559 20.3143 18.148 20.3904C18.2402 20.466 18.2859 20.5887 18.3789 20.7326L18.3928 20.7554C18.4994 20.9133 18.6903 21.0871 18.8555 21.1186C19.0112 21.1486 19.1459 21.11 19.2741 21.1423C19.3413 21.1593 19.4004 21.1827 19.4561 21.209C19.6412 21.2969 19.7736 21.4296 19.9172 21.5722C20.0218 21.6754 20.1181 21.7505 20.142 21.8618C20.1588 21.9395 20.1336 22.0375 20.1525 22.1247C20.1935 22.3106 20.4422 22.4293 20.3096 22.7255C20.3411 22.8211 20.4335 22.8658 20.5291 22.9419C20.6058 23.0034 20.6625 23.1184 20.7508 23.1441C20.8077 23.1609 20.8742 23.142 20.9241 23.1512C21.0851 23.1833 21.1888 23.2602 21.323 23.3324C21.3469 23.3453 21.3729 23.3566 21.3994 23.3674C21.4648 23.3941 21.5318 23.4178 21.5698 23.4511C21.6363 23.5092 21.625 23.6749 21.709 23.7295C21.7639 23.7655 21.8989 23.7426 21.9953 23.7657C22.1465 23.803 22.343 23.923 22.4814 23.9435C22.5651 23.9559 22.6395 23.928 22.7135 23.9435C23.0607 24.0147 23.2064 24.4588 23.5287 24.6274C23.6284 24.6799 23.7981 24.6736 23.8664 24.7138C23.9861 24.7844 24.0442 25.1859 24.0321 25.359C23.9956 25.8824 23.5754 25.9987 23.3015 26.3133C23.2445 26.379 23.2035 26.4895 23.1227 26.5815C22.9598 26.7661 22.802 26.7889 22.7736 27.1623C22.766 27.2648 22.8054 27.3709 22.7912 27.484C22.7739 27.6224 22.7392 27.8018 22.6925 27.9221C22.6571 28.014 22.5691 28.0807 22.5457 28.1653C22.5221 28.2509 22.5517 28.3231 22.5313 28.3961C22.5087 28.477 22.4118 28.5828 22.3343 28.6905C22.2595 28.7947 22.2048 28.9103 22.141 29.0116C22.0656 29.1314 21.9774 29.2309 21.8259 29.2656C21.6612 29.3037 21.4517 29.2446 21.2718 29.2832C21.199 29.2992 21.1027 29.3523 21.0121 29.3811C20.7487 29.4657 20.3742 29.5773 20.2733 29.8257C20.1833 30.0471 20.3067 30.248 20.2316 30.5035C20.1772 30.5758 20.1076 30.6459 20.0294 30.7249C19.9574 30.7985 19.9143 30.8898 19.8392 30.9626C19.7397 31.0592 19.6003 31.0902 19.5299 31.2289C19.506 31.2756 19.5099 31.3355 19.4779 31.4109C19.4658 31.4387 19.4075 31.477 19.3757 31.5285C19.3463 31.5766 19.3392 31.6417 19.313 31.6811C19.231 31.8045 18.9989 32.0803 18.8529 32.1026C18.5456 32.1483 18.2588 31.8996 18.0485 31.9135C18.0601 32.0606 18.1659 32.059 18.2202 32.1677C18.2518 32.2318 18.2631 32.3129 18.3093 32.3823C18.3642 32.4647 18.4175 32.4991 18.4148 32.5845C18.4091 32.7628 18.2494 32.9227 18.148 32.9723C18.0553 33.0175 17.8736 33.028 17.7189 33.0343C17.6107 33.0388 17.3376 33.0054 17.2788 33.0666C17.1926 33.1567 17.2743 33.4162 17.2089 33.5081C17.0758 33.7037 16.8153 33.4524 16.6582 33.4965C16.632 33.6031 16.6574 33.7213 16.7386 33.7828C16.8218 33.8468 16.9671 33.7954 17.0136 33.9049C16.9665 34.0433 16.8111 34.0422 16.7612 34.1782C16.7481 34.3151 16.7853 34.3563 16.7575 34.4388C16.6971 34.6179 16.4122 34.5745 16.3959 34.7712C16.3712 35.0659 16.9361 35.0149 16.9103 35.3012C16.8943 35.4748 16.731 35.4558 16.6527 35.6171C16.6107 35.7035 16.6561 35.7305 16.6294 35.803C16.5926 35.9015 16.4699 35.9159 16.4558 36.0281C16.4382 36.1649 16.6196 36.3408 16.7055 36.4664C16.7893 36.5895 16.8951 36.7634 17.0199 36.8548C17.1144 36.9236 17.2381 36.9609 17.3458 37.0084C23.1999 36.1048 27.6154 30.9739 27.4689 24.8929Z" fill="#244469"/>
</svg>
