<svg width="62" height="74" viewBox="0 0 62 74" fill="none" xmlns="http://www.w3.org/2000/svg">
<path d="M58.7213 28.7692H43.8931C39.7781 24.7014 34.5197 21.7888 28.6484 20.5636C28.7667 15.7543 32.713 11.8776 37.5505 11.8776H42.107C42.7058 11.8776 43.191 11.3922 43.191 10.7936C43.191 10.1949 42.7058 9.70961 42.107 9.70961H37.5505C31.6415 9.70961 26.7988 14.3611 26.4908 20.1948C25.1483 20.0141 23.7791 19.919 22.3879 19.919H21.8563C22.3075 11.6534 29.174 5.06712 37.5503 5.06712H50.0338C50.6878 5.06712 51.22 5.59929 51.22 6.25329V8.52359C51.22 9.17759 50.6878 9.70975 50.0338 9.70975H46.8311C46.2323 9.70975 45.7471 10.1951 45.7471 10.7937C45.7471 11.3924 46.2323 11.8777 46.8311 11.8777H50.0338C51.8834 11.8777 53.3879 10.373 53.3879 8.52359V6.25315C53.3879 4.40358 51.8834 2.89901 50.0338 2.89901H37.5503C27.9782 2.89901 20.1388 10.4573 19.6854 19.9189H14.5707C11.9004 19.9189 9.72794 17.7464 9.72794 15.0762V3.35428C9.72808 1.50472 8.22351 0 6.37394 0H4.10379C2.25423 0 0.749512 1.50472 0.749512 3.35428V30.558C0.749512 31.1566 1.2347 31.6419 1.8335 31.6419C2.43229 31.6419 2.91748 31.1566 2.91748 30.558V3.35428C2.91748 2.70028 3.44964 2.16797 4.10379 2.16797H6.37394C7.02795 2.16797 7.56011 2.70013 7.56011 3.35428V15.0762C7.56011 17.6455 8.95036 19.8952 11.0172 21.1159L14.4102 26.3269L13.4398 36.3671C13.2004 38.8436 12.0828 41.1592 10.2929 42.8873L7.83342 45.262C7.40286 45.6778 7.39072 46.364 7.80654 46.7947C8.01929 47.015 8.30271 47.1259 8.58643 47.1259C8.85742 47.1259 9.12885 47.0248 9.33929 46.8216L11.7986 44.447C11.8287 44.4179 11.8569 44.3874 11.8867 44.3582L12.7462 50.5896C12.8212 51.1323 13.2857 51.5255 13.8186 51.5255C13.868 51.5255 13.9179 51.5222 13.968 51.5153C14.5612 51.4335 14.9757 50.8864 14.8938 50.2933L13.7528 42.0216C14.7702 40.3826 15.4096 38.521 15.5975 36.5757L16.3066 29.2395L21.8991 37.8285C23.5336 40.3387 25.754 42.3422 28.3512 43.6954L31.5381 52.7672C31.6948 53.2132 32.1135 53.4922 32.5608 53.4922C32.6799 53.4922 32.8013 53.4724 32.9201 53.4306C33.4848 53.2322 33.782 52.6134 33.5835 52.0486L31.0437 44.8189C31.4936 44.9632 31.9509 45.091 32.4157 45.1994L36.6989 46.1977C36.7816 46.2169 36.8644 46.2262 36.9459 46.2262C37.4383 46.2262 37.8839 45.8882 38.0007 45.388C38.1364 44.805 37.7741 44.2222 37.1909 44.0862L32.9077 43.088C29.1087 42.2026 25.8443 39.9145 23.7157 36.6455L23.412 36.1789L33.314 36.7812C33.3364 36.7825 33.3586 36.7832 33.3808 36.7832C33.9493 36.7832 34.4267 36.3402 34.4617 35.765C34.498 35.1675 34.0432 34.6535 33.4455 34.6173L29.5039 34.3775L32.59 32.0339C33.0668 31.6719 33.1598 30.9918 32.7977 30.515C32.4357 30.0382 31.7561 29.9451 31.2788 30.3072L26.1848 34.1756L21.9395 33.9174L14.2307 22.0782C14.3434 22.0835 14.4567 22.0868 14.5707 22.0868H22.3879C38.0695 22.0868 50.8274 34.8446 50.8274 50.5263V51.8766C50.8274 52.4753 51.3126 52.9606 51.9114 52.9606C52.51 52.9606 52.9954 52.4753 52.9954 51.8766V50.5263C52.9954 48.5759 52.8098 46.6684 52.4595 44.8186H56.5511C57.9457 44.8186 59.0804 43.6839 59.0804 42.2893V40.0668C59.0804 38.6722 57.9457 37.5375 56.5511 37.5375H50.0984C49.8617 37.0344 49.6123 36.5382 49.3494 36.0504H58.7213C60.1159 36.0504 61.2506 34.9157 61.2506 33.5211V31.2987C61.2506 29.9038 60.1159 28.7692 58.7213 28.7692ZM56.5511 39.7053C56.7505 39.7053 56.9125 39.8675 56.9125 40.0667V42.2891C56.9125 42.4883 56.7505 42.6505 56.5511 42.6505H51.9663C51.6991 41.6476 51.382 40.6652 51.0179 39.7053H56.5511ZM59.0826 33.521C59.0826 33.7202 58.9206 33.8823 58.7213 33.8823H48.0622C47.3951 32.8566 46.6682 31.8733 45.8866 30.9372H58.7213C58.9206 30.9372 59.0826 31.0994 59.0826 31.2985V33.521Z" fill="white"/>
<path d="M0.749512 70.748C0.749512 72.5412 2.20841 74 4.00146 74H6.46717C8.26022 74 9.71912 72.5412 9.71912 70.748V63.1846C15.2617 68.7299 22.9157 72.1647 31.3569 72.1647H44.4728C49.1722 72.1647 52.9955 68.3414 52.9955 63.642V56.6009C52.9955 56.0022 52.5102 55.5169 51.9115 55.5169C51.3128 55.5169 50.8276 56.0022 50.8276 56.6009V63.642C50.8276 67.146 47.9768 69.9968 44.4728 69.9968H31.3569C15.6754 69.9968 2.91748 57.2388 2.91748 41.5574V35.2821C2.91748 34.6835 2.43229 34.1981 1.8335 34.1981C1.2347 34.1981 0.749512 34.6835 0.749512 35.2821V70.748ZM7.55115 70.748C7.55115 71.3458 7.06495 71.832 6.46717 71.832H4.00146C3.40368 71.832 2.91748 71.3458 2.91748 70.748V52.8707C4.06434 55.7435 5.6351 58.4025 7.55115 60.7716V70.748Z" fill="white"/>
</svg>
