<svg width="325" height="119" viewBox="0 0 325 119" fill="none" xmlns="http://www.w3.org/2000/svg">
<path d="M90.1296 59.4981V59.432C90.1296 52.8367 95.2665 47.4338 102.293 47.4338C106.469 47.4338 108.988 48.5609 111.407 50.6159L108.192 54.4935C106.402 53.0024 104.811 52.1405 102.127 52.1405C98.4152 52.1405 95.4656 55.4215 95.4656 59.3659V59.432C95.4656 63.6743 98.3825 66.7896 102.492 66.7896C104.348 66.7896 106.005 66.3253 107.297 65.3973V62.0829H102.161V57.6756H112.236V67.7503C109.849 69.7719 106.569 71.4287 102.326 71.4287C95.1016 71.4294 90.1296 66.3587 90.1296 59.4981Z" fill="white"/>
<path d="M115.946 47.8328H126.552C129.502 47.8328 131.789 48.6612 133.313 50.1857C134.606 51.4785 135.302 53.301 135.302 55.4883V55.5544C135.302 59.2997 133.281 61.6527 130.33 62.7464L135.998 71.0319H130.032L125.061 63.6082H121.051V71.0319H115.946V47.8328ZM126.221 59.1006C128.707 59.1006 130.132 57.7752 130.132 55.8197V55.7536C130.132 53.5663 128.607 52.4399 126.122 52.4399H121.051V59.1013L126.221 59.1006Z" fill="white"/>
<path d="M146.669 47.667H151.375L161.317 71.0319H155.981L153.86 65.8288H144.051L141.929 71.0319H136.726L146.669 47.667ZM152.038 61.3213L148.955 53.798L145.872 61.3213H152.038Z" fill="white"/>
<path d="M163.703 47.832H172.751C180.042 47.832 185.08 52.8367 185.08 59.3651V59.4313C185.08 65.9605 180.042 71.0312 172.751 71.0312H163.703V47.832ZM172.751 66.4248C176.927 66.4248 179.744 63.6075 179.744 59.4981V59.432C179.744 55.3226 176.926 52.4392 172.751 52.4392H168.807V66.4255L172.751 66.4248Z" fill="white"/>
<path d="M188.426 47.832H205.924V52.373H193.497V57.079H204.433V61.6193H193.497V66.4909H206.091V71.0319H188.426V47.832Z" fill="white"/>
<path d="M218.186 47.832H223.29V66.3921H234.856V71.0319H218.186V47.832Z" fill="white"/>
<path d="M245.461 47.667H250.167L260.11 71.0319H254.774L252.653 65.8288H242.843L240.722 71.0319H235.519L245.461 47.667ZM250.83 61.3213L247.748 53.798L244.665 61.3213H250.83Z" fill="white"/>
<path d="M264.915 52.5387H257.856V47.8328H277.078V52.5387H270.019V71.0319H264.915V52.5387Z" fill="white"/>
<path d="M284.767 47.667H289.473L299.415 71.0319H294.079L291.958 65.8288H282.149L280.027 71.0319H274.824L284.767 47.667ZM290.135 61.3213L287.053 53.798L283.97 61.3213H290.135Z" fill="white"/>
<path d="M301.8 47.832H307.302L313.4 57.6422L319.498 47.832H325V71.0319H319.929V55.8858L313.4 65.7955H313.267L306.805 55.9853V71.0319H301.8V47.832Z" fill="white"/>
<path d="M83.1894 18.831L77.8051 16.3656L69.9611 12.7732L63.6253 9.87201L59.1512 7.82195L50.5399 3.87826L42.2031 0.0604423L42.3354 0H42.0709L42.1996 0.0604423L39.9042 1.05241L13.0315 12.6694L9.58205 14.1606L8.67755 14.5517L0.820756 17.9478C-0.291383 18.4285 -0.206764 20.0327 0.949462 20.394L3.78599 21.2807L8.94065 22.8927L12.6426 24.0496L18.1983 25.7868C18.7487 25.9589 19.1213 26.4709 19.1149 27.0476L19.0651 31.6867C19.0544 32.6922 20.1346 33.3307 21.0085 32.833C23.8109 31.2366 26.8145 29.9559 29.9689 29.0322C33.7 27.94 37.6422 27.3484 41.7224 27.3484C42.4513 27.3484 43.1745 27.3726 43.8948 27.4095C49.1576 27.6797 54.165 28.9256 58.7444 30.9671C60.1104 31.5758 61.4409 32.2513 62.7258 32.9972C62.7628 33.0186 62.8005 33.0356 62.8381 33.0527C63.6751 33.4395 64.6557 32.8429 64.6749 31.8972L64.6763 31.878L64.6848 30.5838L64.7047 27.5425C64.7083 26.9644 65.0923 26.4574 65.6484 26.296L66.2897 26.1104L71.4714 24.6114L83.0067 21.2736C84.1729 20.9372 84.2909 19.3359 83.1894 18.831Z" fill="white"/>
<path d="M4.77299 32.9908C4.29158 32.68 4.02991 32.1204 4.03062 31.5473L4.03488 23.6727C4.03559 22.973 3.62459 22.3501 3.00167 22.0621C2.9327 22.0301 2.8623 21.9988 2.78764 21.9754L2.34534 21.8374H2.22232L2.22161 22.84L2.21664 31.5082C2.21592 32.0934 1.9386 32.658 1.44369 32.9695C0.587537 33.5078 0.0122687 34.4478 0.000180206 35.5358C-0.0104861 36.5306 0.453142 37.4152 1.17916 37.984C1.7331 38.4185 2.02891 39.1019 1.88385 39.7909L1.27089 42.7064C1.03908 43.8107 1.88171 44.8496 3.01021 44.8496C4.12306 44.8496 4.96214 43.8391 4.75735 42.7448L4.20839 39.8151C4.07897 39.1232 4.389 38.4462 4.9529 38.0239C5.691 37.4706 6.17383 36.5974 6.1845 35.6026C6.19445 34.5047 5.63056 33.5447 4.77299 32.9908Z" fill="white"/>
<path d="M119.583 108.03C118.901 107.539 117.717 107.947 116.598 108.949C116.197 109.308 115.804 109.741 115.446 110.239C115.343 110.381 115.248 110.525 115.157 110.668C114.57 111.601 114.235 112.544 114.17 113.321C111.895 115.349 109.386 116.531 106.663 116.806C105.567 116.916 104.467 116.88 103.372 116.733C99.7734 116.25 96.2358 114.52 93.0885 112.446C93.1361 111.763 92.8517 111.089 92.28 110.682C90.5521 109.45 88.9763 108.155 87.665 107.018C87.0635 106.495 86.5117 106.004 86.0367 105.572C86.3474 105.29 86.6944 104.98 87.0613 104.655C87.7845 104.017 88.6044 103.312 89.5053 102.581C89.9363 102.231 90.3871 101.877 90.85 101.523C91.2397 101.225 91.6386 100.927 92.0482 100.631C92.1264 100.575 92.2018 100.518 92.2807 100.462C92.8524 100.054 93.1361 99.3807 93.0885 98.6973C95.3967 97.177 97.9146 95.838 100.512 95.0416C102.535 94.4215 104.605 94.13 106.663 94.3376C107.494 94.4215 108.301 94.5993 109.091 94.8496C110.804 95.3929 112.424 96.3137 113.939 97.615C113.932 98.5515 114.386 99.8066 115.238 100.99C116.596 102.877 118.449 103.866 119.375 103.199C120.302 102.532 119.951 100.462 118.593 98.575C117.579 97.1663 116.291 96.2604 115.318 96.1673C113.15 94.2815 110.777 93.0648 108.211 92.5535C107.767 92.4646 107.319 92.3949 106.863 92.3494C105.615 92.2236 104.371 92.262 103.139 92.4248C99.4549 92.9126 95.8873 94.5566 92.7017 96.5648C92.4542 96.7205 92.2089 96.8776 91.9664 97.0369C91.3478 96.7411 90.5926 96.7489 89.9711 97.1912C89.8986 97.2431 89.8289 97.2957 89.7571 97.3476C88.4565 98.2827 87.2484 99.2406 86.1455 100.166C85.1016 101.042 84.1494 101.889 83.3096 102.652C75.1215 98.8331 64.121 101.132 54.276 103.202C49.5181 104.201 45.0248 105.145 41.7253 105.145C40.2733 105.145 38.8426 105.056 37.4353 104.887C36.5152 104.776 35.6064 104.631 34.7098 104.452C31.298 103.771 28.0597 102.603 25.0703 101.024C19.9135 98.3005 15.499 94.3561 12.2138 89.5762C9.96253 86.3002 8.24241 82.6324 7.17792 78.698C7.09685 78.3979 7.01934 78.0964 6.9461 77.7935C6.6318 76.4979 6.38648 75.1746 6.21795 73.8285C6.03449 72.3636 5.9392 70.8718 5.9392 69.3579C5.9392 68.9504 5.94845 68.5458 5.96196 68.1419C6.03165 66.0613 6.27839 64.0247 6.69082 62.0479C7.19569 59.626 7.94731 57.2936 8.91581 55.0771C10.2242 52.082 11.9308 49.2996 13.9681 46.7965C15.0838 45.427 16.2976 44.1399 17.6003 42.9488C21.3442 39.5257 25.8169 36.8876 30.7533 35.2933C32.233 34.8154 33.7533 34.43 35.3099 34.147C36.3986 33.9493 37.505 33.8021 38.6257 33.7054C39.6475 33.6173 40.6815 33.5696 41.7253 33.5696C47.0891 33.5696 52.1797 34.7578 56.752 36.8819C58.8952 37.8774 60.9232 39.0791 62.8119 40.4608C63.4206 40.9059 64.0157 41.3695 64.5939 41.8516C69.6831 46.0904 73.582 51.7123 75.7074 58.1348C76.0111 59.0514 76.2777 59.9843 76.5074 60.9315C76.5949 61.2906 76.6773 61.6518 76.7534 62.0145C77.2498 64.3853 77.5122 66.8414 77.5122 69.3572C77.5122 70.8007 77.4162 72.2307 77.2448 73.645C76.971 75.9098 76.4846 78.1306 75.7913 80.2851C75.5993 80.8832 75.396 81.4776 75.1727 82.065L75.1343 82.0629C71.9628 82.0629 69.3923 84.6334 69.3923 87.8049C69.3923 87.9194 69.4029 88.031 69.4093 88.1434C69.585 91.1562 72.0773 93.5469 75.1343 93.5469C75.6569 93.5469 76.1618 93.4708 76.6432 93.34C79.0815 92.6765 80.877 90.453 80.877 87.8049C80.877 86.1665 80.1873 84.6917 79.0865 83.6457C79.9491 81.3923 80.6054 79.0642 81.0463 76.6842C81.1899 75.9134 81.3022 75.1355 81.3997 74.3547C81.6059 72.7071 81.7182 71.0403 81.7182 69.3579C81.7182 68.2984 81.6763 67.2488 81.5945 66.2099C81.5611 65.7783 81.5184 65.3495 81.4708 64.9221C81.1195 61.7542 80.3985 58.6973 79.3489 55.7953C77.8592 51.6746 75.7103 47.8674 73.0309 44.4997C70.5876 41.4293 67.7027 38.7257 64.4744 36.4844C63.326 35.6872 62.1349 34.9477 60.9033 34.2715C58.7011 33.0633 56.3744 32.0579 53.9468 31.2771C50.092 30.0369 45.9854 29.3643 41.7246 29.3643C41.2717 29.3643 40.8208 29.3749 40.3714 29.3899C37.5214 29.4851 34.746 29.8798 32.0752 30.544C26.2471 31.9931 20.9197 34.723 16.4114 38.4185C11.7324 42.2534 7.93736 47.1265 5.37816 52.6829C5.19612 53.0776 5.01906 53.4751 4.85053 53.8768C3.7199 56.5562 2.87442 59.3828 2.35106 62.3195C2.05739 63.9686 1.86468 65.6524 1.78006 67.364C1.74735 68.0246 1.73029 68.6895 1.73029 69.3586C1.73029 71.6255 1.92299 73.8477 2.28707 76.0129C2.3148 76.1793 2.34253 76.3464 2.3724 76.5128C2.81256 78.9433 3.47529 81.2963 4.33571 83.554C5.1691 85.7413 6.18809 87.8369 7.37489 89.8215C11.0206 95.9184 16.2421 100.969 22.4734 104.405C24.6749 105.619 27.0023 106.631 29.4306 107.417C32.2138 108.318 35.13 108.922 38.1415 109.191C39.3219 109.296 40.5165 109.353 41.7232 109.353C45.4592 109.353 50.1609 108.365 55.1393 107.319C63.5016 105.564 72.7706 103.621 79.6099 105.728C80.0941 105.877 80.5663 106.045 81.0249 106.236C81.1103 106.421 81.2297 106.594 81.3897 106.741L82.1975 107.479C82.8581 108.086 83.619 108.783 84.4588 109.525C86.0281 110.913 87.8855 112.469 89.9704 113.952C90.5919 114.395 91.3471 114.402 91.965 114.107C95.957 116.737 100.607 118.873 105.36 118.864C105.86 118.863 106.362 118.846 106.864 118.795C109.917 118.488 112.714 117.218 115.236 115.049C115.657 115.087 116.159 114.941 116.683 114.644C117.398 114.239 118.154 113.552 118.8 112.654C119.549 111.613 119.99 110.519 120.08 109.633C120.155 108.912 119.998 108.328 119.583 108.03ZM75.1336 90.4729C73.6609 90.4729 72.467 89.279 72.467 87.8063C72.467 86.3344 73.6609 85.1397 75.1336 85.1397C76.6062 85.1397 77.8002 86.3336 77.8002 87.8063C77.8002 89.279 76.6062 90.4729 75.1336 90.4729Z" fill="white"/>
<path d="M43.2228 99.7121C43.0472 99.6033 42.841 99.5436 42.7045 99.449C42.393 99.2321 42.0887 98.617 41.7808 98.3497C41.5937 98.1868 41.2816 98.0737 41.1664 97.9173C41.0562 97.7694 41.0227 97.4743 40.9296 97.298C40.8265 97.1045 40.6139 96.9453 40.4894 96.7305C40.2221 96.2626 39.8836 95.6354 39.9198 95.3204C39.9561 95.0104 40.2811 94.8376 40.2157 94.5332C40.1559 94.2467 39.5529 94.231 39.5096 93.8926C39.4825 93.6878 39.7471 93.3827 39.7663 93.0997C39.7783 92.9361 39.501 92.6752 39.6511 92.4547C39.8239 92.2009 40.0493 92.528 40.2853 92.4171C40.1915 91.8375 40.4816 90.96 39.9476 90.7218C39.6311 90.9266 40.1403 91.5396 39.6361 91.627C39.1938 91.3597 39.3801 90.7567 39.3325 90.2909C39.3019 89.983 39.1867 89.695 39.213 89.3708C39.2265 89.2001 39.3254 89.0131 39.3197 88.8346C39.3026 88.302 38.7757 87.8014 38.8077 87.2738C38.8234 87.0192 39.021 86.8279 39.0936 86.5627C39.1448 86.3828 39.117 86.1709 39.1668 85.9817C39.2322 85.74 39.3965 85.5309 39.4484 85.309C39.548 84.8895 39.5927 84.1542 39.5615 83.7887C39.5216 83.3294 39.2145 82.9049 39.223 82.4099C39.2265 82.2307 39.341 81.9456 39.3503 81.7173C39.3581 81.5047 39.2692 81.2814 39.2792 81.0382C39.287 80.815 39.388 80.6144 39.4441 80.3506C39.5465 79.8699 39.479 79.311 39.5572 78.8303C39.58 78.6888 39.6674 78.5928 39.6831 78.4535C39.7286 78.0531 39.6461 77.6336 39.6788 77.2332C39.7407 76.4944 39.9184 75.9867 39.885 75.292C39.8594 74.7665 39.8473 73.9644 39.7023 73.6174C39.597 73.3663 39.2507 72.9788 38.9151 72.6602C38.733 72.4874 38.5546 72.3338 38.4202 72.235C38.1684 72.0501 37.8499 71.9577 37.5733 71.7742C36.9816 71.386 35.8411 70.5775 35.6427 69.919C35.5858 69.7277 35.6263 69.4909 35.5652 69.2797C35.4471 68.8616 35.135 68.4734 34.9323 68.0588C34.5462 67.2681 34.2752 66.3031 33.8792 65.4868C33.6786 65.0722 33.5187 64.6107 33.2854 64.2716C33.1802 64.1172 32.8694 63.943 32.7165 63.7432C32.671 63.6842 32.6355 63.623 32.6284 63.5583C32.5864 63.19 32.383 62.6645 32.4598 62.3971C32.5622 62.0331 33.3195 61.8247 33.3608 61.4884C33.3963 61.2011 33.0337 60.9856 32.9839 60.7332C32.863 60.116 33.2172 59.8074 33.513 59.343C33.6104 59.1916 33.7185 58.9405 33.8138 58.831C33.9823 58.6355 34.2788 58.612 34.4964 58.4058C34.6187 58.2899 34.7183 58.0296 34.8797 57.864C35.2231 57.5098 35.7173 57.4238 35.883 57.0853C36.0181 56.8101 36.2563 55.3787 36.1987 54.8831C36.1866 54.7771 36.1447 54.674 36.0963 54.5723C36.0153 54.3988 35.9115 54.2289 35.8702 54.0547C35.7543 53.5647 35.7778 53.0499 35.2949 52.9987C34.997 52.9674 34.7467 53.2696 34.5291 53.4531C34.4488 53.7226 34.4352 54.0241 34.1366 54.0724C33.6801 54.1471 33.5855 53.532 33.092 53.3116C32.8957 53.2234 32.5694 53.1857 32.4485 53.1125C32.0951 52.897 32.0431 52.3324 31.6748 52.07C31.3662 51.8517 31.0761 51.8773 30.9097 51.5801C30.8507 51.3824 30.958 51.0539 30.9694 50.8007C30.5762 50.4992 30.3323 49.5279 29.8665 49.2463C29.5572 49.0593 29.0537 49.0095 28.6612 48.8196C28.4771 48.73 28.3391 48.6269 28.1428 48.558C27.9018 48.4705 27.6465 48.4357 27.4659 48.3141C26.7477 47.8369 26.4889 46.552 25.536 46.4588C25.1293 46.4183 24.6919 46.7475 24.325 46.6999C23.9602 46.6515 23.3857 46.2853 22.9555 46.0158C22.5075 45.735 21.9969 45.5479 21.63 45.2983C21.502 45.2109 21.3968 45.1 21.2958 44.9904C21.1628 44.8461 21.0384 44.7032 20.8898 44.6136C20.6892 44.4927 20.382 44.4372 20.2178 44.3327C19.9845 44.1841 19.7584 43.9018 19.4775 43.6486C19.4057 43.5839 19.3339 43.5114 19.2671 43.4353C12.0111 49.5521 7.49432 58.7848 7.74107 69.0102C8.17198 86.9047 23.028 101.062 40.9225 100.631L42.7564 100.587C43.3565 100.573 43.9524 100.541 44.5433 100.494C44.3343 100.398 44.1209 100.3 43.9076 100.192C43.6915 100.081 43.4575 99.855 43.2228 99.7121Z" fill="white"/>
<path d="M74.3791 67.4038C73.9482 49.5094 59.0921 35.3523 41.1969 35.7833L39.3638 35.8274C32.1313 36.0016 25.5104 38.5323 20.2156 42.6673L24.8405 42.3935C24.8377 42.5748 24.8484 42.7612 24.8789 42.9524C24.8832 42.9809 24.8974 43.0363 24.9145 43.1011C25.0048 43.4381 25.2416 44.1712 25.371 44.3519C25.5438 44.5908 26.0913 44.9861 26.4256 45.0352C26.7086 45.0765 27.0598 44.9691 27.3407 44.9534C27.6664 44.9371 28.0667 44.9826 28.3675 44.9257C29.2379 44.7636 29.2151 43.6102 30.1019 43.3343C30.488 43.2155 30.9161 43.2354 31.5639 43.2831C31.7466 43.4815 31.8049 43.7944 31.7431 44.0525C31.6968 44.248 31.4864 44.4031 31.3505 44.6718C31.2311 44.9079 31.1763 45.1952 31.064 45.3836C30.9161 45.6304 30.6345 45.7882 30.5115 46.0222C30.4304 46.1744 30.4389 46.377 30.3707 46.515C30.2498 46.7589 29.8857 46.8961 30.0108 47.1784C30.7987 47.6129 31.8547 47.3157 32.5622 47.5397C32.8602 47.6342 33.444 48.0779 33.3793 48.5473C33.3309 48.8993 33.0337 49.0962 32.9469 49.4767C32.8395 49.9552 32.5622 50.5234 32.4911 50.913C32.3759 51.5509 33.2136 52.7832 33.8984 52.8607C34.6358 52.9439 35.1563 52.2748 35.9946 52.7711C36.2734 52.9354 36.5244 53.4516 36.8515 53.4687C37.1224 53.4829 37.5861 53.0641 37.8058 52.7626C38.0739 52.3942 38.1315 52.0622 38.5417 51.9114C38.9848 51.7486 39.3019 51.8936 39.8587 51.7621C40.1076 51.7038 40.333 51.5786 40.5655 51.4577C40.7696 51.3525 41.0099 51.0389 41.2147 51.3027C41.4849 51.6504 40.7753 51.7379 40.9957 52.102C41.497 52.454 41.8739 51.6753 42.265 51.7109C42.3894 51.723 42.7884 52.0223 42.991 52.1958C43.2683 52.4319 43.3359 52.7235 43.6587 52.8294C43.8657 52.8991 44.2226 52.8188 44.5156 52.8977C44.9031 53.0044 45.0965 53.3727 45.3966 53.4018C45.7628 53.4381 45.9875 53.0634 46.3068 53.0449C47.0065 53.0058 47.2348 53.239 47.4822 53.7048C47.8122 53.8057 47.8804 53.3585 48.1691 53.5554C48.1329 53.6088 48.1236 53.655 48.1094 53.7019C48.039 53.9337 48.1819 54.1065 48.2651 54.3547C48.3306 54.5467 48.2993 54.6726 48.3718 54.7614C48.5339 54.9613 48.8909 55.0061 49.1405 55.2123C49.3901 55.4171 49.5138 55.7491 49.7655 56.1388L49.8032 56.2007C50.0919 56.628 50.6089 57.0988 51.0562 57.1841C51.4778 57.2652 51.8426 57.1607 52.1896 57.2481C52.3717 57.2943 52.5317 57.3576 52.6824 57.4287C53.1837 57.6669 53.5421 58.026 53.9311 58.4122C54.2141 58.6916 54.4751 58.895 54.5398 59.1965C54.5853 59.407 54.517 59.6722 54.5682 59.9083C54.6791 60.4117 55.3525 60.7331 54.9934 61.5353C55.0788 61.7941 55.3291 61.915 55.5879 62.1212C55.7955 62.2876 55.9491 62.599 56.1881 62.6687C56.3424 62.7142 56.5223 62.663 56.6574 62.6879C57.0933 62.7747 57.3742 62.983 57.7375 63.1786C57.8022 63.2134 57.8726 63.244 57.9444 63.2731C58.1215 63.3457 58.3028 63.4097 58.4059 63.5C58.5858 63.6571 58.5553 64.1058 58.7828 64.2537C58.9314 64.3512 59.2969 64.2893 59.5579 64.3519C59.9675 64.4528 60.4994 64.7778 60.8741 64.8333C61.101 64.8667 61.3022 64.7913 61.5027 64.8333C62.4428 65.026 62.8374 66.2284 63.7099 66.6849C63.9801 66.8272 64.4395 66.8101 64.6244 66.9189C64.9486 67.1102 65.1058 68.1974 65.0731 68.666C64.9742 70.0832 63.8365 70.3982 63.0948 71.2501C62.9405 71.4279 62.8296 71.7272 62.6106 71.9761C62.1697 72.476 61.7424 72.5379 61.6656 73.5491C61.6449 73.8264 61.7516 74.1137 61.7132 74.4201C61.6663 74.7949 61.5724 75.2805 61.4458 75.6062C61.3498 75.8551 61.1116 76.0357 61.0483 76.2647C60.9843 76.4965 61.0647 76.6921 61.0092 76.8897C60.9481 77.1087 60.6857 77.3953 60.4759 77.6869C60.2733 77.9692 60.1253 78.282 59.9526 78.5565C59.7485 78.8808 59.5095 79.1503 59.0993 79.2441C58.6534 79.3473 58.086 79.1873 57.5989 79.2918C57.4019 79.3352 57.1409 79.4788 56.8956 79.557C56.1824 79.786 55.1684 80.0882 54.8953 80.7609C54.6514 81.3603 54.9856 81.9043 54.7822 82.5962C54.6351 82.7918 54.4466 82.9816 54.2347 83.1956C54.0399 83.3948 53.9233 83.6422 53.7199 83.8392C53.4504 84.1009 53.0728 84.1848 52.8822 84.5602C52.8175 84.6868 52.8282 84.8489 52.7414 85.053C52.7087 85.1284 52.5509 85.2322 52.4648 85.3716C52.3852 85.5017 52.366 85.6781 52.2949 85.7847C52.073 86.1189 51.4444 86.8656 51.049 86.926C50.2171 87.0497 49.4406 86.3763 48.871 86.414C48.9023 86.8122 49.1888 86.808 49.336 87.1024C49.4214 87.2759 49.4519 87.4956 49.5771 87.6833C49.7257 87.9066 49.8701 87.9997 49.863 88.2309C49.8473 88.7137 49.415 89.1467 49.1405 89.2811C48.8895 89.4034 48.3974 89.4319 47.9786 89.4489C47.6856 89.461 46.9461 89.3707 46.7868 89.5364C46.5536 89.7803 46.7747 90.4829 46.5976 90.7317C46.2371 91.2615 45.5317 90.581 45.1065 90.7005C45.0354 90.9892 45.1044 91.3091 45.3241 91.4755C45.5495 91.649 45.9427 91.5097 46.0686 91.8062C45.9413 92.1809 45.5203 92.1781 45.3852 92.5464C45.3497 92.9169 45.4507 93.0285 45.3753 93.2518C45.2117 93.7368 44.4402 93.6195 44.3961 94.1521C44.3293 94.9499 45.8588 94.812 45.7891 95.587C45.7458 96.0571 45.3035 96.0059 45.0916 96.4425C44.9778 96.6764 45.1008 96.7497 45.0283 96.9459C44.9287 97.2126 44.5966 97.2517 44.5582 97.5553C44.5106 97.9258 45.002 98.4022 45.2345 98.7421C45.4613 99.0756 45.7479 99.5464 46.0857 99.7938C46.3417 99.9801 46.6766 100.081 46.9681 100.21C62.8197 97.763 74.7759 83.8698 74.3791 67.4038Z" fill="white"/>
</svg>
