<svg width="38" height="27" viewBox="0 0 38 27" fill="none" xmlns="http://www.w3.org/2000/svg">
<path d="M36.7265 6.12863C36.7265 6.12863 36.3642 3.57104 35.2485 2.44801C33.8356 0.969969 32.2562 0.962723 31.5316 0.87578C26.344 0.499023 18.5553 0.499023 18.5553 0.499023H18.5408C18.5408 0.499023 10.752 0.499023 5.5644 0.87578C4.83987 0.962723 3.26039 0.969969 1.84756 2.44801C0.731777 3.57104 0.376756 6.12863 0.376756 6.12863C0.376756 6.12863 0 9.13544 0 12.135V14.9462C0 17.9457 0.369511 20.9526 0.369511 20.9526C0.369511 20.9526 0.731777 23.5102 1.84031 24.6332C3.25315 26.1112 5.10795 26.0605 5.93391 26.2199C8.90449 26.5025 18.548 26.5894 18.548 26.5894C18.548 26.5894 26.344 26.5749 31.5316 26.2054C32.2562 26.1185 33.8356 26.1112 35.2485 24.6332C36.3642 23.5102 36.7265 20.9526 36.7265 20.9526C36.7265 20.9526 37.096 17.953 37.096 14.9462V12.135C37.096 9.13544 36.7265 6.12863 36.7265 6.12863ZM14.7152 18.3587V7.93272L24.7355 13.1638L14.7152 18.3587Z" fill="white"/>
</svg>
